<svg width="23" height="21" viewBox="0 0 23 21" fill="none" xmlns="http://www.w3.org/2000/svg">
<path d="M0.195557 3.20563C0.195557 1.69516 1.41946 0.471252 2.92993 0.471252H19.3362C20.8467 0.471252 22.0706 1.69516 22.0706 3.20563V17.4244C22.0706 18.9348 20.8467 20.1588 19.3362 20.1588H2.92993C1.41946 20.1588 0.195557 18.9348 0.195557 17.4244V3.20563ZM2.92993 2.65875C2.62806 2.65875 2.38306 2.90375 2.38306 3.20563V6.22875L11.1331 10.2078L19.8831 6.23094V3.20563C19.8831 2.90375 19.6381 2.65875 19.3362 2.65875H2.92993ZM19.8831 8.63391L11.1331 12.6108L2.38306 8.63172V17.4244C2.38306 17.7263 2.62806 17.9713 2.92993 17.9713H19.3362C19.6381 17.9713 19.8831 17.7263 19.8831 17.4244V8.63391Z" fill="#E7E9EA"/>
</svg>
